<svg width="192" height="85" viewBox="0 0 192 85" fill="none" xmlns="http://www.w3.org/2000/svg">
<mask id="path-1-inside-1_612_126" fill="white">
<path d="M0 14C0 6.26801 6.26801 0 14 0H158C165.732 0 172 6.26801 172 14V51C172 58.732 165.732 65 158 65H14C6.26801 65 0 58.732 0 51V14Z"/>
</mask>
<path d="M0 14C0 6.26801 6.26801 0 14 0H158C165.732 0 172 6.26801 172 14V51C172 58.732 165.732 65 158 65H14C6.26801 65 0 58.732 0 51V14Z" fill="#FDD3D0"/>
<path d="M14 1H158V-1H14V1ZM171 14V51H173V14H171ZM158 64H14V66H158V64ZM1 51V14H-1V51H1ZM14 64C6.8203 64 1 58.1797 1 51H-1C-1 59.2843 5.71572 66 14 66V64ZM171 51C171 58.1797 165.18 64 158 64V66C166.284 66 173 59.2843 173 51H171ZM158 1C165.18 1 171 6.8203 171 14H173C173 5.71573 166.284 -1 158 -1V1ZM14 -1C5.71573 -1 -1 5.71573 -1 14H1C1 6.8203 6.8203 1 14 1V-1Z" fill="#2C2C2C" mask="url(#path-1-inside-1_612_126)"/>
<path d="M65.9091 38.5V26.8636H69.9773C70.7879 26.8636 71.4564 27.0038 71.983 27.2841C72.5095 27.5606 72.9015 27.9337 73.1591 28.4034C73.4167 28.8693 73.5455 29.3864 73.5455 29.9545C73.5455 30.4545 73.4564 30.8674 73.2784 31.1932C73.1042 31.5189 72.8731 31.7765 72.5852 31.9659C72.3011 32.1553 71.9924 32.2955 71.6591 32.3864V32.5C72.0152 32.5227 72.3731 32.6477 72.733 32.875C73.0928 33.1023 73.3939 33.428 73.6364 33.8523C73.8788 34.2765 74 34.7955 74 35.4091C74 35.9924 73.8674 36.517 73.6023 36.983C73.3371 37.4489 72.9186 37.8182 72.3466 38.0909C71.7746 38.3636 71.0303 38.5 70.1136 38.5H65.9091ZM67.3182 37.25H70.1136C71.0341 37.25 71.6875 37.072 72.0739 36.7159C72.464 36.3561 72.6591 35.9205 72.6591 35.4091C72.6591 35.0152 72.5587 34.6515 72.358 34.3182C72.1572 33.9811 71.8712 33.7121 71.5 33.5114C71.1288 33.3068 70.6894 33.2045 70.1818 33.2045H67.3182V37.25ZM67.3182 31.9773H69.9318C70.3561 31.9773 70.7386 31.8939 71.0795 31.7273C71.4242 31.5606 71.697 31.3258 71.8977 31.0227C72.1023 30.7197 72.2045 30.3636 72.2045 29.9545C72.2045 29.4432 72.0265 29.0095 71.6705 28.6534C71.3144 28.2936 70.75 28.1136 69.9773 28.1136H67.3182V31.9773ZM76.7926 38.5H75.3153L79.5881 26.8636H81.0426L85.3153 38.5H83.8381L80.3608 28.7045H80.2699L76.7926 38.5ZM77.3381 33.9545H83.2926V35.2045H77.3381V33.9545ZM95.9446 30.5H94.5355C94.4522 30.0947 94.3063 29.7386 94.098 29.4318C93.8935 29.125 93.6435 28.8674 93.348 28.6591C93.0563 28.447 92.7325 28.2879 92.3764 28.1818C92.0204 28.0758 91.6491 28.0227 91.2628 28.0227C90.5582 28.0227 89.92 28.2008 89.348 28.5568C88.7798 28.9129 88.3272 29.4375 87.9901 30.1307C87.6567 30.8239 87.4901 31.6742 87.4901 32.6818C87.4901 33.6894 87.6567 34.5398 87.9901 35.233C88.3272 35.9261 88.7798 36.4508 89.348 36.8068C89.92 37.1629 90.5582 37.3409 91.2628 37.3409C91.6491 37.3409 92.0204 37.2879 92.3764 37.1818C92.7325 37.0758 93.0563 36.9186 93.348 36.7102C93.6435 36.4981 93.8935 36.2386 94.098 35.9318C94.3063 35.6212 94.4522 35.2652 94.5355 34.8636H95.9446C95.8385 35.4583 95.6454 35.9905 95.3651 36.4602C95.0848 36.9299 94.7363 37.3295 94.3196 37.6591C93.9029 37.9848 93.4351 38.233 92.9162 38.4034C92.401 38.5739 91.8499 38.6591 91.2628 38.6591C90.2704 38.6591 89.3878 38.4167 88.6151 37.9318C87.8423 37.447 87.2344 36.7576 86.7912 35.8636C86.348 34.9697 86.1264 33.9091 86.1264 32.6818C86.1264 31.4545 86.348 30.3939 86.7912 29.5C87.2344 28.6061 87.8423 27.9167 88.6151 27.4318C89.3878 26.947 90.2704 26.7045 91.2628 26.7045C91.8499 26.7045 92.401 26.7898 92.9162 26.9602C93.4351 27.1307 93.9029 27.3807 94.3196 27.7102C94.7363 28.036 95.0848 28.4337 95.3651 28.9034C95.6454 29.3693 95.8385 29.9015 95.9446 30.5ZM98.2216 38.5V26.8636H99.6307V32.6364H99.767L104.994 26.8636H106.835L101.949 32.1136L106.835 38.5H105.131L101.085 33.0909L99.6307 34.7273V38.5H98.2216Z" fill="#2C2C2C"/>
<path opacity="0.2" d="M185.384 76.4062L183.406 78.3843C183.172 78.6186 182.854 78.7502 182.523 78.7502C182.191 78.7502 181.873 78.6186 181.639 78.3843L173.622 70.3672C173.478 70.2228 173.301 70.1159 173.106 70.0557C172.911 69.9955 172.705 69.9839 172.504 70.0218C172.304 70.0597 172.116 70.146 171.957 70.2732C171.798 70.4004 171.672 70.5646 171.591 70.7515L168.806 78.0031C168.703 78.2309 168.533 78.4224 168.32 78.5529C168.106 78.6833 167.858 78.7467 167.608 78.7347C167.358 78.7228 167.118 78.6361 166.918 78.4859C166.718 78.3356 166.567 78.1288 166.486 77.8922L158.314 52.8812C158.247 52.664 158.241 52.4327 158.295 52.2122C158.35 51.9916 158.464 51.7902 158.625 51.6295C158.785 51.4688 158.987 51.355 159.207 51.3002C159.428 51.2454 159.659 51.2518 159.877 51.3187L184.892 59.4812C185.129 59.5625 185.336 59.7129 185.486 59.9131C185.636 60.1132 185.723 60.3538 185.735 60.6037C185.747 60.8537 185.683 61.1015 185.553 61.315C185.422 61.5286 185.231 61.698 185.003 61.8015L177.752 64.5859C177.565 64.6672 177.4 64.793 177.273 64.9522C177.146 65.1115 177.06 65.2995 177.022 65.4998C176.984 65.7001 176.996 65.9066 177.056 66.1014C177.116 66.2961 177.223 66.4732 177.367 66.6172L185.384 74.6343C185.501 74.7505 185.594 74.8885 185.657 75.0406C185.72 75.1926 185.753 75.3556 185.753 75.5203C185.753 75.6849 185.72 75.8479 185.657 76C185.594 76.152 185.501 76.2901 185.384 76.4062Z" fill="#F03AB0" fill-opacity="0.96"/>
<path d="M165.75 48.75V47.5C165.75 47.1685 165.882 46.8505 166.116 46.6161C166.351 46.3817 166.668 46.25 167 46.25C167.332 46.25 167.649 46.3817 167.884 46.6161C168.118 46.8505 168.25 47.1685 168.25 47.5V48.75C168.25 49.0815 168.118 49.3994 167.884 49.6339C167.649 49.8683 167.332 50 167 50C166.668 50 166.351 49.8683 166.116 49.6339C165.882 49.3994 165.75 49.0815 165.75 48.75ZM154.5 61.25H155.75C156.082 61.25 156.399 61.1183 156.634 60.8839C156.868 60.6494 157 60.3315 157 60C157 59.6685 156.868 59.3505 156.634 59.1161C156.399 58.8817 156.082 58.75 155.75 58.75H154.5C154.168 58.75 153.851 58.8817 153.616 59.1161C153.382 59.3505 153.25 59.6685 153.25 60C153.25 60.3315 153.382 60.6494 153.616 60.8839C153.851 61.1183 154.168 61.25 154.5 61.25ZM171.441 51.1187C171.588 51.1923 171.747 51.2362 171.911 51.2479C172.075 51.2596 172.24 51.2389 172.396 51.1869C172.551 51.135 172.696 51.0528 172.82 50.9451C172.944 50.8374 173.045 50.7063 173.119 50.5594L174.369 48.0594C174.517 47.7629 174.542 47.4196 174.437 47.105C174.332 46.7904 174.107 46.5304 173.81 46.382C173.514 46.2337 173.17 46.2092 172.856 46.3139C172.541 46.4187 172.281 46.6441 172.133 46.9406L170.883 49.4406C170.809 49.5874 170.765 49.7473 170.753 49.9111C170.742 50.0749 170.762 50.2394 170.814 50.3953C170.866 50.5511 170.948 50.6952 171.055 50.8193C171.163 50.9435 171.294 51.0452 171.441 51.1187ZM156.441 63.8828L153.941 65.1328C153.644 65.2812 153.419 65.5412 153.314 65.8558C153.209 66.1703 153.234 66.5136 153.382 66.8101C153.53 67.1066 153.79 67.3321 154.105 67.4368C154.42 67.5416 154.763 67.5171 155.059 67.3687L157.559 66.1187C157.706 66.0453 157.837 65.9436 157.945 65.8196C158.052 65.6955 158.134 65.5515 158.186 65.3958C158.238 65.24 158.259 65.0755 158.247 64.9118C158.235 64.748 158.191 64.5882 158.118 64.4414C158.044 64.2946 157.943 64.1637 157.819 64.0561C157.695 63.9486 157.551 63.8666 157.395 63.8147C157.239 63.7628 157.075 63.7421 156.911 63.7538C156.747 63.7655 156.587 63.8093 156.441 63.8828ZM186.267 73.75C186.499 73.9821 186.684 74.2578 186.809 74.5611C186.935 74.8645 187 75.1896 187 75.518C187 75.8463 186.935 76.1714 186.809 76.4748C186.684 76.7781 186.499 77.0538 186.267 77.2859L184.286 79.2672C184.054 79.4994 183.778 79.6836 183.475 79.8092C183.171 79.9349 182.846 79.9996 182.518 79.9996C182.19 79.9996 181.864 79.9349 181.561 79.8092C181.258 79.6836 180.982 79.4994 180.75 79.2672L172.734 71.25L169.969 78.4515C169.969 78.4672 169.956 78.4844 169.948 78.5015C169.757 78.9476 169.439 79.3275 169.033 79.5939C168.628 79.8603 168.152 80.0016 167.667 80H167.544C167.038 79.9786 166.55 79.8022 166.148 79.4948C165.745 79.1874 165.446 78.7638 165.292 78.2812L157.125 53.2687C156.985 52.8313 156.968 52.3637 157.076 51.9172C157.184 51.4708 157.413 51.0627 157.738 50.7379C158.063 50.4131 158.471 50.1841 158.917 50.0759C159.364 49.9678 159.831 49.9848 160.269 50.125L185.281 58.2922C185.759 58.4521 186.178 58.7528 186.482 59.1548C186.786 59.5568 186.962 60.0414 186.985 60.5449C187.009 61.0484 186.88 61.5474 186.615 61.9763C186.351 62.4052 185.962 62.7441 185.502 62.9484L185.452 62.9687L178.25 65.7328L186.267 73.75ZM184.5 75.5172L176.483 67.5C176.194 67.2119 175.98 66.8577 175.86 66.4681C175.74 66.0785 175.717 65.6654 175.793 65.2648C175.869 64.8643 176.041 64.4883 176.296 64.1698C176.551 63.8513 176.879 63.5999 177.253 63.4375L177.303 63.4156L184.483 60.6594L159.5 52.5L167.656 77.4781L170.414 70.2906C170.414 70.2734 170.427 70.2562 170.434 70.239C170.597 69.8654 170.848 69.537 171.167 69.2827C171.485 69.0283 171.861 68.8556 172.261 68.7797C172.416 68.751 172.572 68.7363 172.73 68.7359C173.392 68.7366 174.027 69.0002 174.495 69.4687L182.517 77.5L184.5 75.5172Z" fill="#2C2C2C"/>
</svg>
