<svg width="192" height="85" viewBox="0 0 192 85" fill="none" xmlns="http://www.w3.org/2000/svg">
<mask id="path-1-inside-1_612_109" fill="white">
<path d="M0 14C0 6.26801 6.26801 0 14 0H158C165.732 0 172 6.26801 172 14V51C172 58.732 165.732 65 158 65H14C6.26801 65 0 58.732 0 51V14Z"/>
</mask>
<path d="M0 14C0 6.26801 6.26801 0 14 0H158C165.732 0 172 6.26801 172 14V51C172 58.732 165.732 65 158 65H14C6.26801 65 0 58.732 0 51V14Z" fill="#FDD3D0"/>
<path d="M14 1H158V-1H14V1ZM171 14V51H173V14H171ZM158 64H14V66H158V64ZM1 51V14H-1V51H1ZM14 64C6.8203 64 1 58.1797 1 51H-1C-1 59.2843 5.71572 66 14 66V64ZM171 51C171 58.1797 165.18 64 158 64V66C166.284 66 173 59.2843 173 51H171ZM158 1C165.18 1 171 6.8203 171 14H173C173 5.71573 166.284 -1 158 -1V1ZM14 -1C5.71573 -1 -1 5.71573 -1 14H1C1 6.8203 6.8203 1 14 1V-1Z" fill="#2C2C2C" mask="url(#path-1-inside-1_612_109)"/>
<path d="M45.7727 30.5H44.3636C44.2803 30.0947 44.1345 29.7386 43.9261 29.4318C43.7216 29.125 43.4716 28.8674 43.1761 28.6591C42.8845 28.447 42.5606 28.2879 42.2045 28.1818C41.8485 28.0758 41.4773 28.0227 41.0909 28.0227C40.3864 28.0227 39.7481 28.2008 39.1761 28.5568C38.608 28.9129 38.1553 29.4375 37.8182 30.1307C37.4848 30.8239 37.3182 31.6742 37.3182 32.6818C37.3182 33.6894 37.4848 34.5398 37.8182 35.233C38.1553 35.9261 38.608 36.4508 39.1761 36.8068C39.7481 37.1629 40.3864 37.3409 41.0909 37.3409C41.4773 37.3409 41.8485 37.2879 42.2045 37.1818C42.5606 37.0758 42.8845 36.9186 43.1761 36.7102C43.4716 36.4981 43.7216 36.2386 43.9261 35.9318C44.1345 35.6212 44.2803 35.2652 44.3636 34.8636H45.7727C45.6667 35.4583 45.4735 35.9905 45.1932 36.4602C44.9129 36.9299 44.5644 37.3295 44.1477 37.6591C43.7311 37.9848 43.2633 38.233 42.7443 38.4034C42.2292 38.5739 41.678 38.6591 41.0909 38.6591C40.0985 38.6591 39.2159 38.4167 38.4432 37.9318C37.6705 37.447 37.0625 36.7576 36.6193 35.8636C36.1761 34.9697 35.9545 33.9091 35.9545 32.6818C35.9545 31.4545 36.1761 30.3939 36.6193 29.5C37.0625 28.6061 37.6705 27.9167 38.4432 27.4318C39.2159 26.947 40.0985 26.7045 41.0909 26.7045C41.678 26.7045 42.2292 26.7898 42.7443 26.9602C43.2633 27.1307 43.7311 27.3807 44.1477 27.7102C44.5644 28.036 44.9129 28.4337 45.1932 28.9034C45.4735 29.3693 45.6667 29.9015 45.7727 30.5ZM48.0497 38.5V26.8636H49.4588V37.25H54.8679V38.5H48.0497ZM58.4588 26.8636V38.5H57.0497V26.8636H58.4588ZM70.6477 30.5H69.2386C69.1553 30.0947 69.0095 29.7386 68.8011 29.4318C68.5966 29.125 68.3466 28.8674 68.0511 28.6591C67.7595 28.447 67.4356 28.2879 67.0795 28.1818C66.7235 28.0758 66.3523 28.0227 65.9659 28.0227C65.2614 28.0227 64.6231 28.2008 64.0511 28.5568C63.483 28.9129 63.0303 29.4375 62.6932 30.1307C62.3598 30.8239 62.1932 31.6742 62.1932 32.6818C62.1932 33.6894 62.3598 34.5398 62.6932 35.233C63.0303 35.9261 63.483 36.4508 64.0511 36.8068C64.6231 37.1629 65.2614 37.3409 65.9659 37.3409C66.3523 37.3409 66.7235 37.2879 67.0795 37.1818C67.4356 37.0758 67.7595 36.9186 68.0511 36.7102C68.3466 36.4981 68.5966 36.2386 68.8011 35.9318C69.0095 35.6212 69.1553 35.2652 69.2386 34.8636H70.6477C70.5417 35.4583 70.3485 35.9905 70.0682 36.4602C69.7879 36.9299 69.4394 37.3295 69.0227 37.6591C68.6061 37.9848 68.1383 38.233 67.6193 38.4034C67.1042 38.5739 66.553 38.6591 65.9659 38.6591C64.9735 38.6591 64.0909 38.4167 63.3182 37.9318C62.5455 37.447 61.9375 36.7576 61.4943 35.8636C61.0511 34.9697 60.8295 33.9091 60.8295 32.6818C60.8295 31.4545 61.0511 30.3939 61.4943 29.5C61.9375 28.6061 62.5455 27.9167 63.3182 27.4318C64.0909 26.947 64.9735 26.7045 65.9659 26.7045C66.553 26.7045 67.1042 26.7898 67.6193 26.9602C68.1383 27.1307 68.6061 27.3807 69.0227 27.7102C69.4394 28.036 69.7879 28.4337 70.0682 28.9034C70.3485 29.3693 70.5417 29.9015 70.6477 30.5ZM72.9247 38.5V26.8636H74.3338V32.6364H74.4702L79.6974 26.8636H81.5384L76.652 32.1136L81.5384 38.5H79.8338L75.7884 33.0909L74.3338 34.7273V38.5H72.9247ZM87.8622 38.5V26.8636H89.2713V32.0455H95.4759V26.8636H96.8849V38.5H95.4759V33.2955H89.2713V38.5H87.8622ZM99.706 38.5V26.8636H106.729V28.1136H101.115V32.0455H106.365V33.2955H101.115V37.25H106.82V38.5H99.706ZM109.268 38.5V26.8636H113.2C114.109 26.8636 114.856 27.0189 115.439 27.3295C116.022 27.6364 116.454 28.0587 116.734 28.5966C117.015 29.1345 117.155 29.7462 117.155 30.4318C117.155 31.1174 117.015 31.7254 116.734 32.2557C116.454 32.786 116.024 33.2027 115.445 33.5057C114.865 33.8049 114.125 33.9545 113.223 33.9545H110.041V32.6818H113.178C113.799 32.6818 114.299 32.5909 114.678 32.4091C115.06 32.2273 115.337 31.9697 115.507 31.6364C115.681 31.2992 115.768 30.8977 115.768 30.4318C115.768 29.9659 115.681 29.5587 115.507 29.2102C115.333 28.8617 115.054 28.5928 114.672 28.4034C114.289 28.2102 113.784 28.1136 113.155 28.1136H110.678V38.5H109.268ZM114.746 33.2727L117.609 38.5H115.973L113.155 33.2727H114.746ZM119.503 38.5V26.8636H126.526V28.1136H120.912V32.0455H126.162V33.2955H120.912V37.25H126.616V38.5H119.503ZM130.656 26.8636L130.543 35.2273H129.224L129.111 26.8636H130.656ZM129.884 38.5909C129.603 38.5909 129.363 38.4905 129.162 38.2898C128.961 38.089 128.861 37.8485 128.861 37.5682C128.861 37.2879 128.961 37.0473 129.162 36.8466C129.363 36.6458 129.603 36.5455 129.884 36.5455C130.164 36.5455 130.404 36.6458 130.605 36.8466C130.806 37.0473 130.906 37.2879 130.906 37.5682C130.906 37.7538 130.859 37.9242 130.764 38.0795C130.673 38.2348 130.55 38.3598 130.395 38.4545C130.243 38.5455 130.073 38.5909 129.884 38.5909ZM135.109 26.8636L134.996 35.2273H133.678L133.564 26.8636H135.109ZM134.337 38.5909C134.056 38.5909 133.816 38.4905 133.615 38.2898C133.414 38.089 133.314 37.8485 133.314 37.5682C133.314 37.2879 133.414 37.0473 133.615 36.8466C133.816 36.6458 134.056 36.5455 134.337 36.5455C134.617 36.5455 134.857 36.6458 135.058 36.8466C135.259 37.0473 135.359 37.2879 135.359 37.5682C135.359 37.7538 135.312 37.9242 135.217 38.0795C135.126 38.2348 135.003 38.3598 134.848 38.4545C134.696 38.5455 134.526 38.5909 134.337 38.5909Z" fill="#2C2C2C"/>
<path opacity="0.2" d="M185.384 76.4062L183.406 78.3843C183.172 78.6186 182.854 78.7502 182.523 78.7502C182.191 78.7502 181.873 78.6186 181.639 78.3843L173.622 70.3672C173.478 70.2228 173.301 70.1159 173.106 70.0557C172.911 69.9955 172.705 69.9839 172.504 70.0218C172.304 70.0597 172.116 70.146 171.957 70.2732C171.798 70.4004 171.672 70.5646 171.591 70.7515L168.806 78.0031C168.703 78.2309 168.533 78.4224 168.32 78.5529C168.106 78.6833 167.858 78.7467 167.608 78.7347C167.358 78.7228 167.118 78.6361 166.918 78.4859C166.718 78.3356 166.567 78.1288 166.486 77.8922L158.314 52.8812C158.247 52.664 158.241 52.4327 158.295 52.2122C158.35 51.9916 158.464 51.7902 158.625 51.6295C158.785 51.4688 158.987 51.355 159.207 51.3002C159.428 51.2454 159.659 51.2518 159.877 51.3187L184.892 59.4812C185.129 59.5625 185.336 59.7129 185.486 59.9131C185.636 60.1132 185.723 60.3538 185.735 60.6037C185.747 60.8537 185.683 61.1015 185.553 61.315C185.422 61.5286 185.231 61.698 185.003 61.8015L177.752 64.5859C177.565 64.6672 177.4 64.793 177.273 64.9522C177.146 65.1115 177.06 65.2995 177.022 65.4998C176.984 65.7001 176.996 65.9066 177.056 66.1014C177.116 66.2961 177.223 66.4732 177.367 66.6172L185.384 74.6343C185.501 74.7505 185.594 74.8885 185.657 75.0406C185.72 75.1926 185.753 75.3556 185.753 75.5203C185.753 75.6849 185.72 75.8479 185.657 76C185.594 76.152 185.501 76.2901 185.384 76.4062Z" fill="#F03AB0" fill-opacity="0.96"/>
<path d="M165.75 48.75V47.5C165.75 47.1685 165.882 46.8505 166.116 46.6161C166.351 46.3817 166.668 46.25 167 46.25C167.332 46.25 167.649 46.3817 167.884 46.6161C168.118 46.8505 168.25 47.1685 168.25 47.5V48.75C168.25 49.0815 168.118 49.3994 167.884 49.6339C167.649 49.8683 167.332 50 167 50C166.668 50 166.351 49.8683 166.116 49.6339C165.882 49.3994 165.75 49.0815 165.75 48.75ZM154.5 61.25H155.75C156.082 61.25 156.399 61.1183 156.634 60.8839C156.868 60.6494 157 60.3315 157 60C157 59.6685 156.868 59.3505 156.634 59.1161C156.399 58.8817 156.082 58.75 155.75 58.75H154.5C154.168 58.75 153.851 58.8817 153.616 59.1161C153.382 59.3505 153.25 59.6685 153.25 60C153.25 60.3315 153.382 60.6494 153.616 60.8839C153.851 61.1183 154.168 61.25 154.5 61.25ZM171.441 51.1187C171.588 51.1923 171.747 51.2362 171.911 51.2479C172.075 51.2596 172.24 51.2389 172.396 51.1869C172.551 51.135 172.696 51.0528 172.82 50.9451C172.944 50.8374 173.045 50.7063 173.119 50.5594L174.369 48.0594C174.517 47.7629 174.542 47.4196 174.437 47.105C174.332 46.7904 174.107 46.5304 173.81 46.382C173.514 46.2337 173.17 46.2092 172.856 46.3139C172.541 46.4187 172.281 46.6441 172.133 46.9406L170.883 49.4406C170.809 49.5874 170.765 49.7473 170.753 49.9111C170.742 50.0749 170.762 50.2394 170.814 50.3953C170.866 50.5511 170.948 50.6952 171.055 50.8193C171.163 50.9435 171.294 51.0452 171.441 51.1187ZM156.441 63.8828L153.941 65.1328C153.644 65.2812 153.419 65.5412 153.314 65.8558C153.209 66.1703 153.234 66.5136 153.382 66.8101C153.53 67.1066 153.79 67.3321 154.105 67.4368C154.42 67.5416 154.763 67.5171 155.059 67.3687L157.559 66.1187C157.706 66.0453 157.837 65.9436 157.945 65.8196C158.052 65.6955 158.134 65.5515 158.186 65.3958C158.238 65.24 158.259 65.0755 158.247 64.9118C158.235 64.748 158.191 64.5882 158.118 64.4414C158.044 64.2946 157.943 64.1637 157.819 64.0561C157.695 63.9486 157.551 63.8666 157.395 63.8147C157.239 63.7628 157.075 63.7421 156.911 63.7538C156.747 63.7655 156.587 63.8093 156.441 63.8828ZM186.267 73.75C186.499 73.9821 186.684 74.2578 186.809 74.5611C186.935 74.8645 187 75.1896 187 75.518C187 75.8463 186.935 76.1714 186.809 76.4748C186.684 76.7781 186.499 77.0538 186.267 77.2859L184.286 79.2672C184.054 79.4994 183.778 79.6836 183.475 79.8092C183.171 79.9349 182.846 79.9996 182.518 79.9996C182.19 79.9996 181.864 79.9349 181.561 79.8092C181.258 79.6836 180.982 79.4994 180.75 79.2672L172.734 71.25L169.969 78.4515C169.969 78.4672 169.956 78.4844 169.948 78.5015C169.757 78.9476 169.439 79.3275 169.033 79.5939C168.628 79.8603 168.152 80.0016 167.667 80H167.544C167.038 79.9786 166.55 79.8022 166.148 79.4948C165.745 79.1874 165.446 78.7638 165.292 78.2812L157.125 53.2687C156.985 52.8313 156.968 52.3637 157.076 51.9172C157.184 51.4708 157.413 51.0627 157.738 50.7379C158.063 50.4131 158.471 50.1841 158.917 50.0759C159.364 49.9678 159.831 49.9848 160.269 50.125L185.281 58.2922C185.759 58.4521 186.178 58.7528 186.482 59.1548C186.786 59.5568 186.962 60.0414 186.985 60.5449C187.009 61.0484 186.88 61.5474 186.615 61.9763C186.351 62.4052 185.962 62.7441 185.502 62.9484L185.452 62.9687L178.25 65.7328L186.267 73.75ZM184.5 75.5172L176.483 67.5C176.194 67.2119 175.98 66.8577 175.86 66.4681C175.74 66.0785 175.717 65.6654 175.793 65.2648C175.869 64.8643 176.041 64.4883 176.296 64.1698C176.551 63.8513 176.879 63.5999 177.253 63.4375L177.303 63.4156L184.483 60.6594L159.5 52.5L167.656 77.4781L170.414 70.2906C170.414 70.2734 170.427 70.2562 170.434 70.239C170.597 69.8654 170.848 69.537 171.167 69.2827C171.485 69.0283 171.861 68.8556 172.261 68.7797C172.416 68.751 172.572 68.7363 172.73 68.7359C173.392 68.7366 174.027 69.0002 174.495 69.4687L182.517 77.5L184.5 75.5172Z" fill="#2C2C2C"/>
</svg>
