<svg width="192" height="85" viewBox="0 0 192 85" fill="none" xmlns="http://www.w3.org/2000/svg">
<mask id="path-1-inside-1_629_238" fill="white">
<path d="M0 14C0 6.26801 6.26801 0 14 0H158C165.732 0 172 6.26801 172 14V51C172 58.732 165.732 65 158 65H14C6.26801 65 0 58.732 0 51V14Z"/>
</mask>
<path d="M0 14C0 6.26801 6.26801 0 14 0H158C165.732 0 172 6.26801 172 14V51C172 58.732 165.732 65 158 65H14C6.26801 65 0 58.732 0 51V14Z" fill="#FDD3D0"/>
<path d="M14 1H158V-1H14V1ZM171 14V51H173V14H171ZM158 64H14V66H158V64ZM1 51V14H-1V51H1ZM14 64C6.8203 64 1 58.1797 1 51H-1C-1 59.2843 5.71572 66 14 66V64ZM171 51C171 58.1797 165.18 64 158 64V66C166.284 66 173 59.2843 173 51H171ZM158 1C165.18 1 171 6.8203 171 14H173C173 5.71573 166.284 -1 158 -1V1ZM14 -1C5.71573 -1 -1 5.71573 -1 14H1C1 6.8203 6.8203 1 14 1V-1Z" fill="#2C2C2C" mask="url(#path-1-inside-1_629_238)"/>
<path d="M41.4091 38.5V26.8636H48.3864V28.1136H42.8182V32.0455H47.8636V33.2955H42.8182V38.5H41.4091ZM60.6179 32.6818C60.6179 33.9091 60.3963 34.9697 59.9531 35.8636C59.5099 36.7576 58.902 37.447 58.1293 37.9318C57.3565 38.4167 56.474 38.6591 55.4815 38.6591C54.4891 38.6591 53.6065 38.4167 52.8338 37.9318C52.0611 37.447 51.4531 36.7576 51.0099 35.8636C50.5668 34.9697 50.3452 33.9091 50.3452 32.6818C50.3452 31.4545 50.5668 30.3939 51.0099 29.5C51.4531 28.6061 52.0611 27.9167 52.8338 27.4318C53.6065 26.947 54.4891 26.7045 55.4815 26.7045C56.474 26.7045 57.3565 26.947 58.1293 27.4318C58.902 27.9167 59.5099 28.6061 59.9531 29.5C60.3963 30.3939 60.6179 31.4545 60.6179 32.6818ZM59.2543 32.6818C59.2543 31.6742 59.0857 30.8239 58.7486 30.1307C58.4152 29.4375 57.9626 28.9129 57.3906 28.5568C56.8224 28.2008 56.1861 28.0227 55.4815 28.0227C54.777 28.0227 54.1387 28.2008 53.5668 28.5568C52.9986 28.9129 52.5459 29.4375 52.2088 30.1307C51.8755 30.8239 51.7088 31.6742 51.7088 32.6818C51.7088 33.6894 51.8755 34.5398 52.2088 35.233C52.5459 35.9261 52.9986 36.4508 53.5668 36.8068C54.1387 37.1629 54.777 37.3409 55.4815 37.3409C56.1861 37.3409 56.8224 37.1629 57.3906 36.8068C57.9626 36.4508 58.4152 35.9261 58.7486 35.233C59.0857 34.5398 59.2543 33.6894 59.2543 32.6818ZM62.9872 38.5V26.8636H66.919C67.8281 26.8636 68.5743 27.0189 69.1577 27.3295C69.741 27.6364 70.1728 28.0587 70.4531 28.5966C70.7334 29.1345 70.8736 29.7462 70.8736 30.4318C70.8736 31.1174 70.7334 31.7254 70.4531 32.2557C70.1728 32.786 69.7429 33.2027 69.1634 33.5057C68.5838 33.8049 67.8433 33.9545 66.9418 33.9545H63.7599V32.6818H66.8963C67.5175 32.6818 68.0175 32.5909 68.3963 32.4091C68.7789 32.2273 69.0554 31.9697 69.2259 31.6364C69.4001 31.2992 69.4872 30.8977 69.4872 30.4318C69.4872 29.9659 69.4001 29.5587 69.2259 29.2102C69.0516 28.8617 68.7732 28.5928 68.3906 28.4034C68.008 28.2102 67.5024 28.1136 66.8736 28.1136H64.3963V38.5H62.9872ZM68.4645 33.2727L71.3281 38.5H69.6918L66.8736 33.2727H68.4645ZM77.7216 26.8636H79.4034L83.358 36.5227H83.4943L87.4489 26.8636H89.1307V38.5H87.8125V29.6591H87.6989L84.0625 38.5H82.7898L79.1534 29.6591H79.0398V38.5H77.7216V26.8636ZM101.774 32.6818C101.774 33.9091 101.553 34.9697 101.109 35.8636C100.666 36.7576 100.058 37.447 99.2855 37.9318C98.5128 38.4167 97.6302 38.6591 96.6378 38.6591C95.6454 38.6591 94.7628 38.4167 93.9901 37.9318C93.2173 37.447 92.6094 36.7576 92.1662 35.8636C91.723 34.9697 91.5014 33.9091 91.5014 32.6818C91.5014 31.4545 91.723 30.3939 92.1662 29.5C92.6094 28.6061 93.2173 27.9167 93.9901 27.4318C94.7628 26.947 95.6454 26.7045 96.6378 26.7045C97.6302 26.7045 98.5128 26.947 99.2855 27.4318C100.058 27.9167 100.666 28.6061 101.109 29.5C101.553 30.3939 101.774 31.4545 101.774 32.6818ZM100.411 32.6818C100.411 31.6742 100.242 30.8239 99.9048 30.1307C99.5715 29.4375 99.1188 28.9129 98.5469 28.5568C97.9787 28.2008 97.3423 28.0227 96.6378 28.0227C95.9332 28.0227 95.295 28.2008 94.723 28.5568C94.1548 28.9129 93.7022 29.4375 93.3651 30.1307C93.0317 30.8239 92.8651 31.6742 92.8651 32.6818C92.8651 33.6894 93.0317 34.5398 93.3651 35.233C93.7022 35.9261 94.1548 36.4508 94.723 36.8068C95.295 37.1629 95.9332 37.3409 96.6378 37.3409C97.3423 37.3409 97.9787 37.1629 98.5469 36.8068C99.1188 36.4508 99.5715 35.9261 99.9048 35.233C100.242 34.5398 100.411 33.6894 100.411 32.6818ZM104.143 38.5V26.8636H108.075C108.984 26.8636 109.731 27.0189 110.314 27.3295C110.897 27.6364 111.329 28.0587 111.609 28.5966C111.89 29.1345 112.03 29.7462 112.03 30.4318C112.03 31.1174 111.89 31.7254 111.609 32.2557C111.329 32.786 110.899 33.2027 110.32 33.5057C109.74 33.8049 109 33.9545 108.098 33.9545H104.916V32.6818H108.053C108.674 32.6818 109.174 32.5909 109.553 32.4091C109.935 32.2273 110.212 31.9697 110.382 31.6364C110.556 31.2992 110.643 30.8977 110.643 30.4318C110.643 29.9659 110.556 29.5587 110.382 29.2102C110.208 28.8617 109.929 28.5928 109.547 28.4034C109.164 28.2102 108.659 28.1136 108.03 28.1136H105.553V38.5H104.143ZM109.621 33.2727L112.484 38.5H110.848L108.03 33.2727H109.621ZM114.378 38.5V26.8636H121.401V28.1136H115.787V32.0455H121.037V33.2955H115.787V37.25H121.491V38.5H114.378ZM125.531 26.8636L125.418 35.2273H124.099L123.986 26.8636H125.531ZM124.759 38.5909C124.478 38.5909 124.238 38.4905 124.037 38.2898C123.836 38.089 123.736 37.8485 123.736 37.5682C123.736 37.2879 123.836 37.0473 124.037 36.8466C124.238 36.6458 124.478 36.5455 124.759 36.5455C125.039 36.5455 125.279 36.6458 125.48 36.8466C125.681 37.0473 125.781 37.2879 125.781 37.5682C125.781 37.7538 125.734 37.9242 125.639 38.0795C125.548 38.2348 125.425 38.3598 125.27 38.4545C125.118 38.5455 124.948 38.5909 124.759 38.5909ZM129.984 26.8636L129.871 35.2273H128.553L128.439 26.8636H129.984ZM129.212 38.5909C128.931 38.5909 128.691 38.4905 128.49 38.2898C128.289 38.089 128.189 37.8485 128.189 37.5682C128.189 37.2879 128.289 37.0473 128.49 36.8466C128.691 36.6458 128.931 36.5455 129.212 36.5455C129.492 36.5455 129.732 36.6458 129.933 36.8466C130.134 37.0473 130.234 37.2879 130.234 37.5682C130.234 37.7538 130.187 37.9242 130.092 38.0795C130.001 38.2348 129.878 38.3598 129.723 38.4545C129.571 38.5455 129.401 38.5909 129.212 38.5909Z" fill="#2C2C2C"/>
<path opacity="0.2" d="M185.384 76.4062L183.406 78.3843C183.172 78.6186 182.854 78.7502 182.523 78.7502C182.191 78.7502 181.874 78.6186 181.639 78.3843L173.622 70.3672C173.478 70.2228 173.301 70.1159 173.106 70.0557C172.911 69.9955 172.705 69.9839 172.505 70.0218C172.304 70.0597 172.116 70.146 171.957 70.2732C171.798 70.4004 171.672 70.5646 171.591 70.7515L168.806 78.0031C168.703 78.2309 168.533 78.4224 168.32 78.5529C168.106 78.6833 167.858 78.7467 167.609 78.7347C167.359 78.7228 167.118 78.6361 166.918 78.4859C166.718 78.3356 166.567 78.1288 166.486 77.8922L158.314 52.8812C158.247 52.664 158.241 52.4327 158.296 52.2122C158.35 51.9916 158.464 51.7902 158.625 51.6295C158.786 51.4688 158.987 51.355 159.208 51.3002C159.428 51.2454 159.659 51.2518 159.877 51.3187L184.892 59.4812C185.129 59.5625 185.336 59.7129 185.486 59.9131C185.636 60.1132 185.723 60.3538 185.735 60.6037C185.747 60.8537 185.683 61.1015 185.553 61.315C185.423 61.5286 185.231 61.698 185.003 61.8015L177.752 64.5859C177.565 64.6672 177.4 64.793 177.273 64.9522C177.146 65.1115 177.06 65.2995 177.022 65.4998C176.984 65.7001 176.996 65.9066 177.056 66.1014C177.116 66.2961 177.223 66.4732 177.367 66.6172L185.384 74.6343C185.501 74.7505 185.594 74.8885 185.657 75.0406C185.72 75.1926 185.753 75.3556 185.753 75.5203C185.753 75.6849 185.72 75.8479 185.657 76C185.594 76.152 185.501 76.2901 185.384 76.4062Z" fill="#F03AB0" fill-opacity="0.96"/>
<path d="M165.75 48.75V47.5C165.75 47.1685 165.882 46.8505 166.116 46.6161C166.351 46.3817 166.669 46.25 167 46.25C167.332 46.25 167.65 46.3817 167.884 46.6161C168.118 46.8505 168.25 47.1685 168.25 47.5V48.75C168.25 49.0815 168.118 49.3994 167.884 49.6339C167.65 49.8683 167.332 50 167 50C166.669 50 166.351 49.8683 166.116 49.6339C165.882 49.3994 165.75 49.0815 165.75 48.75ZM154.5 61.25H155.75C156.082 61.25 156.4 61.1183 156.634 60.8839C156.868 60.6494 157 60.3315 157 60C157 59.6685 156.868 59.3505 156.634 59.1161C156.4 58.8817 156.082 58.75 155.75 58.75H154.5C154.169 58.75 153.851 58.8817 153.616 59.1161C153.382 59.3505 153.25 59.6685 153.25 60C153.25 60.3315 153.382 60.6494 153.616 60.8839C153.851 61.1183 154.169 61.25 154.5 61.25ZM171.441 51.1187C171.588 51.1923 171.748 51.2362 171.911 51.2479C172.075 51.2596 172.24 51.2389 172.396 51.1869C172.552 51.135 172.696 51.0528 172.82 50.9451C172.944 50.8374 173.045 50.7063 173.119 50.5594L174.369 48.0594C174.517 47.7629 174.542 47.4196 174.437 47.105C174.332 46.7904 174.107 46.5304 173.81 46.382C173.514 46.2337 173.17 46.2092 172.856 46.3139C172.541 46.4187 172.281 46.6441 172.133 46.9406L170.883 49.4406C170.809 49.5874 170.765 49.7473 170.754 49.9111C170.742 50.0749 170.762 50.2394 170.814 50.3953C170.866 50.5511 170.948 50.6952 171.055 50.8193C171.163 50.9435 171.294 51.0452 171.441 51.1187ZM156.441 63.8828L153.941 65.1328C153.644 65.2812 153.419 65.5412 153.314 65.8558C153.209 66.1703 153.234 66.5136 153.382 66.8101C153.53 67.1066 153.791 67.3321 154.105 67.4368C154.42 67.5416 154.763 67.5171 155.059 67.3687L157.559 66.1187C157.706 66.0453 157.837 65.9436 157.945 65.8196C158.052 65.6955 158.134 65.5515 158.186 65.3958C158.238 65.24 158.259 65.0755 158.247 64.9118C158.235 64.748 158.192 64.5882 158.118 64.4414C158.045 64.2946 157.943 64.1637 157.819 64.0561C157.695 63.9486 157.551 63.8666 157.395 63.8147C157.239 63.7628 157.075 63.7421 156.911 63.7538C156.747 63.7655 156.588 63.8093 156.441 63.8828ZM186.267 73.75C186.499 73.9821 186.684 74.2578 186.809 74.5611C186.935 74.8645 187 75.1896 187 75.518C187 75.8463 186.935 76.1714 186.809 76.4748C186.684 76.7781 186.499 77.0538 186.267 77.2859L184.286 79.2672C184.054 79.4994 183.778 79.6836 183.475 79.8092C183.172 79.9349 182.846 79.9996 182.518 79.9996C182.19 79.9996 181.865 79.9349 181.561 79.8092C181.258 79.6836 180.982 79.4994 180.75 79.2672L172.734 71.25L169.969 78.4515C169.969 78.4672 169.956 78.4844 169.949 78.5015C169.757 78.9476 169.439 79.3275 169.033 79.5939C168.628 79.8603 168.153 80.0016 167.667 80H167.544C167.038 79.9786 166.55 79.8022 166.148 79.4948C165.745 79.1874 165.446 78.7638 165.292 78.2812L157.125 53.2687C156.985 52.8313 156.968 52.3637 157.076 51.9172C157.184 51.4708 157.413 51.0627 157.738 50.7379C158.063 50.4131 158.471 50.1841 158.917 50.0759C159.364 49.9678 159.831 49.9848 160.269 50.125L185.281 58.2922C185.759 58.4521 186.178 58.7528 186.482 59.1548C186.786 59.5568 186.962 60.0414 186.985 60.5449C187.009 61.0484 186.88 61.5474 186.616 61.9763C186.351 62.4052 185.962 62.7441 185.502 62.9484L185.452 62.9687L178.25 65.7328L186.267 73.75ZM184.5 75.5172L176.483 67.5C176.194 67.2119 175.981 66.8577 175.86 66.4681C175.74 66.0785 175.717 65.6654 175.793 65.2648C175.869 64.8643 176.042 64.4883 176.296 64.1698C176.551 63.8513 176.879 63.5999 177.253 63.4375L177.303 63.4156L184.483 60.6594L159.5 52.5L167.656 77.4781L170.414 70.2906C170.414 70.2734 170.427 70.2562 170.434 70.239C170.597 69.8654 170.848 69.537 171.167 69.2827C171.485 69.0283 171.861 68.8556 172.261 68.7797C172.416 68.751 172.573 68.7363 172.73 68.7359C173.392 68.7366 174.027 69.0002 174.495 69.4687L182.517 77.5L184.5 75.5172Z" fill="#2C2C2C"/>
</svg>
