<svg width="192" height="85" viewBox="0 0 192 85" fill="none" xmlns="http://www.w3.org/2000/svg">
<mask id="path-1-inside-1_615_374" fill="white">
<path d="M0 14C0 6.26801 6.26801 0 14 0H158C165.732 0 172 6.26801 172 14V51C172 58.732 165.732 65 158 65H14C6.26801 65 0 58.732 0 51V14Z"/>
</mask>
<path d="M0 14C0 6.26801 6.26801 0 14 0H158C165.732 0 172 6.26801 172 14V51C172 58.732 165.732 65 158 65H14C6.26801 65 0 58.732 0 51V14Z" fill="#FDD3D0"/>
<path d="M14 1H158V-1H14V1ZM171 14V51H173V14H171ZM158 64H14V66H158V64ZM1 51V14H-1V51H1ZM14 64C6.8203 64 1 58.1797 1 51H-1C-1 59.2843 5.71572 66 14 66V64ZM171 51C171 58.1797 165.18 64 158 64V66C166.284 66 173 59.2843 173 51H171ZM158 1C165.18 1 171 6.8203 171 14H173C173 5.71573 166.284 -1 158 -1V1ZM14 -1C5.71573 -1 -1 5.71573 -1 14H1C1 6.8203 6.8203 1 14 1V-1Z" fill="#2C2C2C" mask="url(#path-1-inside-1_615_374)"/>
<path d="M18.4091 38.5V26.8636H22.4773C23.2879 26.8636 23.9564 27.0038 24.483 27.2841C25.0095 27.5606 25.4015 27.9337 25.6591 28.4034C25.9167 28.8693 26.0455 29.3864 26.0455 29.9545C26.0455 30.4545 25.9564 30.8674 25.7784 31.1932C25.6042 31.5189 25.3731 31.7765 25.0852 31.9659C24.8011 32.1553 24.4924 32.2955 24.1591 32.3864V32.5C24.5152 32.5227 24.8731 32.6477 25.233 32.875C25.5928 33.1023 25.8939 33.428 26.1364 33.8523C26.3788 34.2765 26.5 34.7955 26.5 35.4091C26.5 35.9924 26.3674 36.517 26.1023 36.983C25.8371 37.4489 25.4186 37.8182 24.8466 38.0909C24.2746 38.3636 23.5303 38.5 22.6136 38.5H18.4091ZM19.8182 37.25H22.6136C23.5341 37.25 24.1875 37.072 24.5739 36.7159C24.964 36.3561 25.1591 35.9205 25.1591 35.4091C25.1591 35.0152 25.0587 34.6515 24.858 34.3182C24.6572 33.9811 24.3712 33.7121 24 33.5114C23.6288 33.3068 23.1894 33.2045 22.6818 33.2045H19.8182V37.25ZM19.8182 31.9773H22.4318C22.8561 31.9773 23.2386 31.8939 23.5795 31.7273C23.9242 31.5606 24.197 31.3258 24.3977 31.0227C24.6023 30.7197 24.7045 30.3636 24.7045 29.9545C24.7045 29.4432 24.5265 29.0095 24.1705 28.6534C23.8144 28.2936 23.25 28.1136 22.4773 28.1136H19.8182V31.9773ZM29.2926 38.5H27.8153L32.0881 26.8636H33.5426L37.8153 38.5H36.3381L32.8608 28.7045H32.7699L29.2926 38.5ZM29.8381 33.9545H35.7926V35.2045H29.8381V33.9545ZM48.4446 30.5H47.0355C46.9522 30.0947 46.8063 29.7386 46.598 29.4318C46.3935 29.125 46.1435 28.8674 45.848 28.6591C45.5563 28.447 45.2325 28.2879 44.8764 28.1818C44.5204 28.0758 44.1491 28.0227 43.7628 28.0227C43.0582 28.0227 42.42 28.2008 41.848 28.5568C41.2798 28.9129 40.8272 29.4375 40.4901 30.1307C40.1567 30.8239 39.9901 31.6742 39.9901 32.6818C39.9901 33.6894 40.1567 34.5398 40.4901 35.233C40.8272 35.9261 41.2798 36.4508 41.848 36.8068C42.42 37.1629 43.0582 37.3409 43.7628 37.3409C44.1491 37.3409 44.5204 37.2879 44.8764 37.1818C45.2325 37.0758 45.5563 36.9186 45.848 36.7102C46.1435 36.4981 46.3935 36.2386 46.598 35.9318C46.8063 35.6212 46.9522 35.2652 47.0355 34.8636H48.4446C48.3385 35.4583 48.1454 35.9905 47.8651 36.4602C47.5848 36.9299 47.2363 37.3295 46.8196 37.6591C46.4029 37.9848 45.9351 38.233 45.4162 38.4034C44.901 38.5739 44.3499 38.6591 43.7628 38.6591C42.7704 38.6591 41.8878 38.4167 41.1151 37.9318C40.3423 37.447 39.7344 36.7576 39.2912 35.8636C38.848 34.9697 38.6264 33.9091 38.6264 32.6818C38.6264 31.4545 38.848 30.3939 39.2912 29.5C39.7344 28.6061 40.3423 27.9167 41.1151 27.4318C41.8878 26.947 42.7704 26.7045 43.7628 26.7045C44.3499 26.7045 44.901 26.7898 45.4162 26.9602C45.9351 27.1307 46.4029 27.3807 46.8196 27.7102C47.2363 28.036 47.5848 28.4337 47.8651 28.9034C48.1454 29.3693 48.3385 29.9015 48.4446 30.5ZM50.7216 38.5V26.8636H52.1307V32.6364H52.267L57.4943 26.8636H59.3352L54.4489 32.1136L59.3352 38.5H57.6307L53.5852 33.0909L52.1307 34.7273V38.5H50.7216ZM65.0227 28.1136V26.8636H73.75V28.1136H70.0909V38.5H68.6818V28.1136H65.0227ZM85.2585 32.6818C85.2585 33.9091 85.0369 34.9697 84.5938 35.8636C84.1506 36.7576 83.5426 37.447 82.7699 37.9318C81.9972 38.4167 81.1146 38.6591 80.1222 38.6591C79.1297 38.6591 78.2472 38.4167 77.4744 37.9318C76.7017 37.447 76.0938 36.7576 75.6506 35.8636C75.2074 34.9697 74.9858 33.9091 74.9858 32.6818C74.9858 31.4545 75.2074 30.3939 75.6506 29.5C76.0938 28.6061 76.7017 27.9167 77.4744 27.4318C78.2472 26.947 79.1297 26.7045 80.1222 26.7045C81.1146 26.7045 81.9972 26.947 82.7699 27.4318C83.5426 27.9167 84.1506 28.6061 84.5938 29.5C85.0369 30.3939 85.2585 31.4545 85.2585 32.6818ZM83.8949 32.6818C83.8949 31.6742 83.7263 30.8239 83.3892 30.1307C83.0559 29.4375 82.6032 28.9129 82.0312 28.5568C81.4631 28.2008 80.8267 28.0227 80.1222 28.0227C79.4176 28.0227 78.7794 28.2008 78.2074 28.5568C77.6392 28.9129 77.1866 29.4375 76.8494 30.1307C76.5161 30.8239 76.3494 31.6742 76.3494 32.6818C76.3494 33.6894 76.5161 34.5398 76.8494 35.233C77.1866 35.9261 77.6392 36.4508 78.2074 36.8068C78.7794 37.1629 79.4176 37.3409 80.1222 37.3409C80.8267 37.3409 81.4631 37.1629 82.0312 36.8068C82.6032 36.4508 83.0559 35.9261 83.3892 35.233C83.7263 34.5398 83.8949 33.6894 83.8949 32.6818ZM102.991 29.7727C102.923 29.197 102.647 28.75 102.162 28.4318C101.677 28.1136 101.082 27.9545 100.378 27.9545C99.8627 27.9545 99.4119 28.0379 99.0256 28.2045C98.643 28.3712 98.3438 28.6004 98.1278 28.892C97.9157 29.1837 97.8097 29.5152 97.8097 29.8864C97.8097 30.197 97.8835 30.464 98.0312 30.6875C98.1828 30.9072 98.3759 31.0909 98.6108 31.2386C98.8456 31.3826 99.0919 31.5019 99.3494 31.5966C99.607 31.6875 99.8438 31.7614 100.06 31.8182L101.241 32.1364C101.545 32.2159 101.882 32.3258 102.253 32.4659C102.628 32.6061 102.986 32.7973 103.327 33.0398C103.671 33.2784 103.955 33.5852 104.179 33.9602C104.402 34.3352 104.514 34.7955 104.514 35.3409C104.514 35.9697 104.349 36.5379 104.02 37.0455C103.694 37.553 103.217 37.9564 102.588 38.2557C101.963 38.5549 101.204 38.7045 100.31 38.7045C99.4763 38.7045 98.7547 38.5701 98.1449 38.3011C97.5388 38.0322 97.0616 37.6572 96.7131 37.1761C96.3684 36.6951 96.1733 36.1364 96.1278 35.5H97.5824C97.6203 35.9394 97.768 36.303 98.0256 36.5909C98.2869 36.875 98.6165 37.0871 99.0142 37.2273C99.4157 37.3636 99.8475 37.4318 100.31 37.4318C100.848 37.4318 101.33 37.3447 101.759 37.1705C102.187 36.9924 102.526 36.7462 102.776 36.4318C103.026 36.1136 103.151 35.7424 103.151 35.3182C103.151 34.9318 103.043 34.6174 102.827 34.375C102.611 34.1326 102.327 33.9356 101.974 33.7841C101.622 33.6326 101.241 33.5 100.832 33.3864L99.4006 32.9773C98.4915 32.7159 97.7718 32.3428 97.2415 31.858C96.7112 31.3731 96.446 30.7386 96.446 29.9545C96.446 29.303 96.6222 28.7348 96.9744 28.25C97.3305 27.7614 97.8078 27.3826 98.4062 27.1136C99.0085 26.8409 99.6809 26.7045 100.423 26.7045C101.173 26.7045 101.84 26.839 102.423 27.108C103.007 27.3731 103.469 27.7367 103.81 28.1989C104.154 28.661 104.336 29.1856 104.355 29.7727H102.991ZM106.195 28.1136V26.8636H114.922V28.1136H111.263V38.5H109.854V28.1136H106.195ZM116.214 38.5H114.737L119.01 26.8636H120.464L124.737 38.5H123.26L119.783 28.7045H119.692L116.214 38.5ZM116.76 33.9545H122.714V35.2045H116.76V33.9545ZM126.55 38.5V26.8636H130.482C131.391 26.8636 132.137 27.0189 132.72 27.3295C133.304 27.6364 133.735 28.0587 134.016 28.5966C134.296 29.1345 134.436 29.7462 134.436 30.4318C134.436 31.1174 134.296 31.7254 134.016 32.2557C133.735 32.786 133.305 33.2027 132.726 33.5057C132.146 33.8049 131.406 33.9545 130.504 33.9545H127.322V32.6818H130.459C131.08 32.6818 131.58 32.5909 131.959 32.4091C132.341 32.2273 132.618 31.9697 132.788 31.6364C132.963 31.2992 133.05 30.8977 133.05 30.4318C133.05 29.9659 132.963 29.5587 132.788 29.2102C132.614 28.8617 132.336 28.5928 131.953 28.4034C131.571 28.2102 131.065 28.1136 130.436 28.1136H127.959V38.5H126.55ZM132.027 33.2727L134.891 38.5H133.254L130.436 33.2727H132.027ZM136.148 28.1136V26.8636H144.875V28.1136H141.216V38.5H139.807V28.1136H136.148ZM148.641 26.8636L148.527 35.2273H147.209L147.095 26.8636H148.641ZM147.868 38.5909C147.588 38.5909 147.347 38.4905 147.146 38.2898C146.946 38.089 146.845 37.8485 146.845 37.5682C146.845 37.2879 146.946 37.0473 147.146 36.8466C147.347 36.6458 147.588 36.5455 147.868 36.5455C148.148 36.5455 148.389 36.6458 148.589 36.8466C148.79 37.0473 148.891 37.2879 148.891 37.5682C148.891 37.7538 148.843 37.9242 148.749 38.0795C148.658 38.2348 148.535 38.3598 148.379 38.4545C148.228 38.5455 148.057 38.5909 147.868 38.5909ZM153.094 26.8636L152.98 35.2273H151.662L151.548 26.8636H153.094ZM152.321 38.5909C152.041 38.5909 151.8 38.4905 151.599 38.2898C151.399 38.089 151.298 37.8485 151.298 37.5682C151.298 37.2879 151.399 37.0473 151.599 36.8466C151.8 36.6458 152.041 36.5455 152.321 36.5455C152.601 36.5455 152.842 36.6458 153.043 36.8466C153.243 37.0473 153.344 37.2879 153.344 37.5682C153.344 37.7538 153.296 37.9242 153.202 38.0795C153.111 38.2348 152.988 38.3598 152.832 38.4545C152.681 38.5455 152.51 38.5909 152.321 38.5909Z" fill="#2C2C2C"/>
<path opacity="0.2" d="M185.384 76.4062L183.406 78.3843C183.172 78.6186 182.854 78.7502 182.523 78.7502C182.191 78.7502 181.874 78.6186 181.639 78.3843L173.622 70.3672C173.478 70.2228 173.301 70.1159 173.106 70.0557C172.911 69.9955 172.705 69.9839 172.505 70.0218C172.304 70.0597 172.116 70.146 171.957 70.2732C171.798 70.4004 171.672 70.5646 171.591 70.7515L168.806 78.0031C168.703 78.2309 168.533 78.4224 168.32 78.5529C168.106 78.6833 167.858 78.7467 167.609 78.7347C167.359 78.7228 167.118 78.6361 166.918 78.4859C166.718 78.3356 166.567 78.1288 166.486 77.8922L158.314 52.8812C158.247 52.664 158.241 52.4327 158.296 52.2122C158.35 51.9916 158.464 51.7902 158.625 51.6295C158.786 51.4688 158.987 51.355 159.208 51.3002C159.428 51.2454 159.659 51.2518 159.877 51.3187L184.892 59.4812C185.129 59.5625 185.336 59.7129 185.486 59.9131C185.636 60.1132 185.723 60.3538 185.735 60.6037C185.747 60.8537 185.683 61.1015 185.553 61.315C185.423 61.5286 185.231 61.698 185.003 61.8015L177.752 64.5859C177.565 64.6672 177.4 64.793 177.273 64.9522C177.146 65.1115 177.06 65.2995 177.022 65.4998C176.984 65.7001 176.996 65.9066 177.056 66.1014C177.116 66.2961 177.223 66.4732 177.367 66.6172L185.384 74.6343C185.501 74.7505 185.594 74.8885 185.657 75.0406C185.72 75.1926 185.753 75.3556 185.753 75.5203C185.753 75.6849 185.72 75.8479 185.657 76C185.594 76.152 185.501 76.2901 185.384 76.4062Z" fill="#F03AB0" fill-opacity="0.96"/>
<path d="M165.75 48.75V47.5C165.75 47.1685 165.882 46.8505 166.116 46.6161C166.351 46.3817 166.669 46.25 167 46.25C167.332 46.25 167.65 46.3817 167.884 46.6161C168.118 46.8505 168.25 47.1685 168.25 47.5V48.75C168.25 49.0815 168.118 49.3994 167.884 49.6339C167.65 49.8683 167.332 50 167 50C166.669 50 166.351 49.8683 166.116 49.6339C165.882 49.3994 165.75 49.0815 165.75 48.75ZM154.5 61.25H155.75C156.082 61.25 156.4 61.1183 156.634 60.8839C156.868 60.6494 157 60.3315 157 60C157 59.6685 156.868 59.3505 156.634 59.1161C156.4 58.8817 156.082 58.75 155.75 58.75H154.5C154.169 58.75 153.851 58.8817 153.616 59.1161C153.382 59.3505 153.25 59.6685 153.25 60C153.25 60.3315 153.382 60.6494 153.616 60.8839C153.851 61.1183 154.169 61.25 154.5 61.25ZM171.441 51.1187C171.588 51.1923 171.748 51.2362 171.911 51.2479C172.075 51.2596 172.24 51.2389 172.396 51.1869C172.552 51.135 172.696 51.0528 172.82 50.9451C172.944 50.8374 173.045 50.7063 173.119 50.5594L174.369 48.0594C174.517 47.7629 174.542 47.4196 174.437 47.105C174.332 46.7904 174.107 46.5304 173.81 46.382C173.514 46.2337 173.17 46.2092 172.856 46.3139C172.541 46.4187 172.281 46.6441 172.133 46.9406L170.883 49.4406C170.809 49.5874 170.765 49.7473 170.754 49.9111C170.742 50.0749 170.762 50.2394 170.814 50.3953C170.866 50.5511 170.948 50.6952 171.055 50.8193C171.163 50.9435 171.294 51.0452 171.441 51.1187ZM156.441 63.8828L153.941 65.1328C153.644 65.2812 153.419 65.5412 153.314 65.8558C153.209 66.1703 153.234 66.5136 153.382 66.8101C153.53 67.1066 153.791 67.3321 154.105 67.4368C154.42 67.5416 154.763 67.5171 155.059 67.3687L157.559 66.1187C157.706 66.0453 157.837 65.9436 157.945 65.8196C158.052 65.6955 158.134 65.5515 158.186 65.3958C158.238 65.24 158.259 65.0755 158.247 64.9118C158.235 64.748 158.192 64.5882 158.118 64.4414C158.045 64.2946 157.943 64.1637 157.819 64.0561C157.695 63.9486 157.551 63.8666 157.395 63.8147C157.239 63.7628 157.075 63.7421 156.911 63.7538C156.747 63.7655 156.588 63.8093 156.441 63.8828ZM186.267 73.75C186.499 73.9821 186.684 74.2578 186.809 74.5611C186.935 74.8645 187 75.1896 187 75.518C187 75.8463 186.935 76.1714 186.809 76.4748C186.684 76.7781 186.499 77.0538 186.267 77.2859L184.286 79.2672C184.054 79.4994 183.778 79.6836 183.475 79.8092C183.172 79.9349 182.846 79.9996 182.518 79.9996C182.19 79.9996 181.865 79.9349 181.561 79.8092C181.258 79.6836 180.982 79.4994 180.75 79.2672L172.734 71.25L169.969 78.4515C169.969 78.4672 169.956 78.4844 169.949 78.5015C169.757 78.9476 169.439 79.3275 169.033 79.5939C168.628 79.8603 168.153 80.0016 167.667 80H167.544C167.038 79.9786 166.55 79.8022 166.148 79.4948C165.745 79.1874 165.446 78.7638 165.292 78.2812L157.125 53.2687C156.985 52.8313 156.968 52.3637 157.076 51.9172C157.184 51.4708 157.413 51.0627 157.738 50.7379C158.063 50.4131 158.471 50.1841 158.917 50.0759C159.364 49.9678 159.831 49.9848 160.269 50.125L185.281 58.2922C185.759 58.4521 186.178 58.7528 186.482 59.1548C186.786 59.5568 186.962 60.0414 186.985 60.5449C187.009 61.0484 186.88 61.5474 186.616 61.9763C186.351 62.4052 185.962 62.7441 185.502 62.9484L185.452 62.9687L178.25 65.7328L186.267 73.75ZM184.5 75.5172L176.483 67.5C176.194 67.2119 175.981 66.8577 175.86 66.4681C175.74 66.0785 175.717 65.6654 175.793 65.2648C175.869 64.8643 176.042 64.4883 176.296 64.1698C176.551 63.8513 176.879 63.5999 177.253 63.4375L177.303 63.4156L184.483 60.6594L159.5 52.5L167.656 77.4781L170.414 70.2906C170.414 70.2734 170.427 70.2562 170.434 70.239C170.597 69.8654 170.848 69.537 171.167 69.2827C171.485 69.0283 171.861 68.8556 172.261 68.7797C172.416 68.751 172.573 68.7363 172.73 68.7359C173.392 68.7366 174.027 69.0002 174.495 69.4687L182.517 77.5L184.5 75.5172Z" fill="#2C2C2C"/>
</svg>
